ply
format ascii 1.0
element vertex 905
property float x
property float y
property float z
element face 1753
property list uchar int vertex_index
end_header
0.6212 0.3388 3.6023
0.874 0.3388 4.0063
0.7897 0.4231 3.7966
0.6212 0.6759 3.3409
0.5369 0.8445 3.112
0.874 0.6759 3.6678
1.1268 0.5074 3.9036
1.0425 0.6759 3.7972
1.1268 0.6759 3.8343
1.5482 0.6759 3.8509
1.801 0.4231 3.6315
1.801 0.5074 3.7205
1.801 0.8445 3.877
1.9695 0.8445 3.8149
2.7279 0.7602 3.4001
2.8122 0.7602 3.4102
2.3909 0.3388 3.543
2.5594 0.5074 3.47
2.3909 0.8445 3.4565
3.4864 0.4231 4.0032
3.2336 0.5074 3.6641
2.9807 0.5916 3.504
2.9807 0.8445 3.3865
3.2336 0.8445 3.3686
0.6212 1.0973 3.0658
0.6212 0.9287 3.1695
0.4527 1.3501 2.7298
0.874 0.9287 3.5136
0.7055 1.1815 3.071
0.7055 1.3501 2.8715
0.7897 1.4343 2.83
0.3684 1.6029 2.3146
0.5369 1.94 1.9983
0.7897 2.1085 2.1953
0.6212 2.6141 1.6818
0.5369 2.6141 1.4603
0.4527 2.1928 1.639
0.3684 2.3613 1.1944
0.5369 2.6984 1.4255
0.874 2.4456 2.2331
0.874 2.9512 2.2813
0.6212 2.7827 1.6423
0.3684 3.0355 0.6918
0.6212 3.2883 1.5051
0.7897 3.1197 2.0376
3.4864 2.0242 2.8649
2.2223 2.1085 3.3101
1.0425 0.9287 3.6991
1.1268 1.0973 3.6251
1.5482 0.9287 3.8286
1.7167 1.1815 3.7257
1.7167 1.2658 3.7071
2.2223 1.1815 3.4916
2.0538 1.1815 3.6183
2.0538 1.4343 3.5928
1.5482 2.0242 3.3668
1.2111 1.7714 3.1225
1.1268 1.7714 2.9607
1.2954 1.6872 3.2933
1.1268 1.8557 2.923
1.0425 1.94 2.7214
1.4639 1.8557 3.405
1.2953 1.8557 3.2359
1.9695 1.5186 3.6617
1.801 2.0242 3.3763
1.7167 1.94 3.4153
2.7279 1.013 3.2867
2.7279 0.9287 3.3303
2.4751 1.1815 3.3056
2.7279 1.2658 3.1746
3.065 1.3501 3.1426
3.1493 1.0973 3.1974
3.065 1.013 3.261
2.9807 0.9287 3.3304
2.8965 1.2658 3.1705
2.9807 1.4343 3.0838
2.4751 1.6872 3.1067
2.4751 1.7714 3.1025
2.3066 1.6029 3.2978
2.7279 1.5186 3.0018
3.4021 1.6872 2.9935
3.1493 1.7714 2.8983
3.1493 1.6029 2.9974
3.4864 1.5186 3.082
3.3178 1.5186 3.0711
3.2336 1.6872 2.9662
3.2336 1.8557 2.8995
2.2223 3.2883 2.8856
1.1268 2.277 2.7509
1.1268 2.3613 2.7102
1.2953 2.6141 2.8617
1.8852 2.6141 3.1681
1.801 2.1928 3.2714
1.801 2.3613 3.2252
2.0538 2.277 3.2736
2.0538 2.3613 3.2363
2.0538 2.6984 3.1088
1.0425 3.0355 2.5699
1.1268 3.0355 2.6674
1.2111 3.3725 2.6414
1.801 2.9512 3.2357
1.8852 2.8669 3.1757
1.6324 2.8669 3.1961
2.0538 2.7827 3.0829
1.6324 3.2883 2.9393
3.4864 2.6141 2.5117
2.3909 2.277 3.1826
2.6437 2.3613 3.0027
2.4751 2.6141 3.0775
2.3066 2.6984 3.0834
2.8122 2.5299 2.8961
2.6437 2.6141 3.0021
2.7279 2.6984 2.9447
2.9807 2.6141 2.824
3.4021 2.277 2.772
3.2336 2.277 2.8217
3.4021 2.1928 2.8163
2.7279 3.2883 2.6128
2.3909 2.8669 3.0003
2.8122 2.7827 2.8848
2.6437 2.7827 2.9769
2.3066 3.1197 2.9054
3.4864 2.9512 2.2599
3.4021 2.9512 2.3762
3.4021 2.7827 2.4954
3.3178 2.8669 2.545
2.8965 3.204 2.6174
2.8965 3.3725 2.4268
3.4864 3.1197 2.1639
3.4021 3.1197 2.2754
0.4527 3.4568 0.877
0.3684 3.7939 0.6641
0.5369 3.9624 0.9162
0.6212 4.2995 0.9788
0.7055 4.131 1.2551
0.5369 4.5523 0.66
0.6212 4.6366 0.8655
0.3684 4.5523 0.1902
0.4527 4.8894 0.4489
0.3684 4.8894 0.2692
0.6212 4.7209 0.8539
0.4527 5.0579 0.5053
0.4527 5.1422 0.5253
0.3684 5.2265 0.4388
0.9583 5.0579 1.5566
0.7055 5.1422 0.9912
0.4527 5.3108 0.538
0.5369 5.5636 0.7102
0.7897 5.395 1.1728
0.6212 5.8164 1.0606
0.5369 5.6478 0.7552
0.3684 5.7321 0.4177
2.2223 3.8782 2.7252
1.1268 3.5411 2.5084
1.5482 3.7939 2.5755
1.3796 3.9624 2.4882
1.8852 3.8782 2.6392
1.7167 3.7096 2.6858
2.0538 3.5411 2.9502
2.2223 3.7939 2.7609
2.0538 3.7096 2.8457
1.9695 3.9624 2.6335
2.138 3.9624 2.7087
1.1268 4.2152 2.1219
1.3796 4.131 2.3825
1.2953 4.5523 2.0526
2.1381 4.2152 2.5641
1.6324 4.2995 2.3253
2.138 4.131 2.6112
1.8852 4.5523 2.359
1.8852 4.3838 2.3809
1.8852 4.4681 2.3649
1.801 4.4681 2.338
2.7279 3.8782 2.0984
2.4751 3.6254 2.5383
2.3066 3.5411 2.7768
2.7279 3.7096 2.1846
2.6437 3.9624 2.17
3.065 3.6254 2.033
3.1493 3.7096 1.9537
2.8965 3.7939 1.9962
3.4864 3.5411 2.0299
3.4021 3.7939 1.9601
2.4751 4.131 2.3842
2.3909 4.0467 2.5061
2.5594 4.2152 2.2631
2.3066 4.3838 2.5284
2.8122 4.4681 2.0231
2.6437 4.5523 2.2421
3.1493 4.0467 1.9366
3.1493 4.131 1.9459
2.9807 4.2995 1.9197
2.8965 4.2995 1.9333
3.3178 4.2152 2.0394
3.2336 4.5523 2.1286
2.138 5.1422 2.4413
1.1268 5.1422 1.745
1.0425 4.9737 1.6911
1.5482 4.9737 2.0615
1.2953 5.2265 1.883
1.6324 4.8894 2.1544
1.8852 4.9737 2.3785
1.9695 4.7209 2.3955
2.138 5.0579 2.4452
1.5482 5.8164 1.9073
1.5482 5.3108 2.1013
1.5482 5.395 2.0973
1.4639 5.3108 2.0351
1.0425 5.6478 1.6612
1.4639 5.7321 1.9399
1.3796 5.9006 1.8391
1.2953 5.9006 1.8145
1.8852 5.5636 2.1316
1.6324 5.3108 2.1659
2.0538 5.5636 2.1688
1.801 5.6478 2.0655
1.7167 5.9006 1.8932
2.138 5.9006 2.0451
2.8122 4.8894 2.3708
2.3909 4.8894 2.4991
2.3066 5.1422 2.467
2.7279 4.9737 2.4695
3.1493 5.2265 2.8141
2.8965 5.0579 2.5563
3.4864 4.8051 2.5136
2.4751 5.5636 2.5331
2.3909 5.8164 2.3339
2.7279 5.7321 2.7401
2.5594 5.8164 2.5438
3.2336 5.3108 2.9161
3.065 5.6478 2.9068
3.3178 5.6478 2.9088
0.5369 5.9849 1.0573
0.6212 6.2377 1.3343
0.3684 6.2377 1.1983
0.4527 6.2377 1.1999
0.7055 6.0692 1.3622
0.874 6.7433 1.4744
0.7055 6.7433 1.3766
0.7897 6.7433 1.4296
0.6212 7.1647 1.1167
0.3684 6.9961 0.9727
0.7897 7.0804 1.3243
0.6212 7.3332 1.0698
0.3684 7.249 0.8394
0.3684 7.7546 1.0486
0.7055 7.3332 1.1689
0.7055 7.5018 1.1112
0.5369 7.8388 0.9526
0.4527 7.8388 0.9632
0.4527 7.9231 0.9373
1.5482 6.0692 1.8161
1.4639 6.1535 1.7956
1.2111 6.322 1.6873
1.1268 6.322 1.655
1.2953 6.4063 1.698
1.801 6.4905 1.7229
2.2223 5.9849 2.0817
2.2223 6.2377 1.9951
2.138 6.2377 1.9015
1.9695 6.322 1.7643
2.138 6.322 1.8887
1.5482 7.1647 1.5988
1.2111 6.8276 1.5476
1.4639 6.5748 1.6848
1.1268 6.9119 1.5281
1.5482 6.9961 1.6083
1.801 6.5748 1.7307
1.6324 6.5748 1.7145
1.9695 6.5748 1.7916
2.138 6.6591 1.9383
1.801 6.9119 1.7759
1.6324 6.9119 1.673
1.6324 7.1647 1.66
3.4864 6.4063 1.9581
2.8122 6.1534 2.6344
2.4751 5.9849 2.3793
2.4751 6.4063 2.3035
2.4751 6.4905 2.2846
2.5594 6.4063 2.3845
3.1493 6.4063 2.3583
3.1493 5.9849 2.5606
2.8965 6.4063 2.5425
3.2336 6.0692 2.4207
3.4021 6.322 2.0985
3.4021 6.4905 2.0022
2.8122 7.1647 1.984
2.6437 6.5748 2.3677
2.3066 7.0804 1.8757
2.7279 6.9961 2.0874
2.9807 6.8276 2.2313
3.2336 6.6591 2.1534
3.4021 6.8276 1.8444
3.065 6.9119 2.1081
2.8965 7.0804 2.0506
3.2336 6.9119 1.9667
1.2953 7.249 1.5057
1.5482 7.249 1.5999
1.4639 7.249 1.55
1.801 7.3332 1.7285
1.6324 7.249 1.6573
2.2223 7.586 1.8289
1.2953 7.8388 1.624
1.2953 7.9231 1.6669
1.4639 7.9231 1.7673
1.4639 8.1759 1.823
2.2223 8.0074 1.9758
1.8852 7.9231 1.8891
1.7167 7.9231 1.8208
2.0538 8.0074 1.9731
3.4864 7.7546 1.0503
2.8122 7.7546 1.5158
2.3909 7.249 1.8509
2.4751 7.6703 1.7775
2.8122 7.5018 1.6811
3.1493 7.6703 1.3417
3.1493 7.7546 1.2777
3.1493 7.586 1.4076
2.9807 7.586 1.5362
3.4021 7.249 1.4999
3.4021 7.5018 1.2713
2.3909 7.8388 1.8587
2.7279 7.8388 1.5422
2.5594 8.0074 1.6832
2.3066 8.1759 2.0129
2.9807 7.9231 1.2972
2.9807 8.0074 1.257
3.2336 7.8388 1.1539
3.4021 7.9231 0.9844
6.0145 0.8445 3.9152
4.6661 0.7602 4.0248
3.5706 0.3388 4.1821
3.6549 0.3388 4.3019
4.4133 0.3388 4.5416
4.1605 0.4231 4.5435
4.3291 0.8445 4.0993
4.4976 0.7602 4.1289
5.3403 0.5074 4.3884
5.256 0.3388 4.5275
5.0875 0.5074 4.3386
4.9189 0.8445 3.8983
5.256 0.6759 4.2278
5.0875 0.7602 4.0367
5.6774 0.3388 4.6142
5.4246 0.5074 4.3843
5.9302 0.3388 4.435
5.8459 0.8445 3.9864
6.2673 0.4231 4.3521
6.0987 0.3388 4.4067
6.2673 0.5917 4.1897
6.0987 0.6759 4.0854
6.0987 0.7602 3.9903
6.0987 0.8445 3.8954
7.1942 0.4231 4.2632
6.7729 0.3388 4.2864
6.9414 0.6759 4.0885
6.6886 0.6759 4.0184
7.5313 0.5074 4.3756
7.447 0.4231 4.3663
7.447 0.3388 4.4196
7.447 0.5916 4.3022
7.3628 0.8445 4.0243
7.6998 0.8445 4.0971
8.5425 0.3388 3.2583
8.4583 0.5074 3.3044
8.374 0.7602 3.2832
8.374 0.8445 3.2213
8.4583 0.8445 3.1814
4.7504 2.0242 1.9874
4.0762 1.4343 3.2157
3.7392 1.013 3.5234
3.5706 1.4343 3.124
4.2448 1.013 3.8483
4.4133 1.1815 3.6078
4.2448 1.2658 3.425
4.1605 1.2658 3.4479
4.6661 1.013 3.8481
4.6661 1.0973 3.7379
4.5819 1.3501 3.2593
3.992 2.0242 2.4791
4.0762 1.5186 3.0836
3.7392 1.94 2.8344
3.8234 1.8557 2.8477
4.5819 1.6872 2.5367
4.4976 1.7714 2.4026
4.4133 1.94 2.1406
4.5819 1.8557 2.2373
4.5819 2.0242 1.9742
5.0032 1.013 3.7478
5.1718 1.0973 3.7523
5.0875 1.0973 3.6908
5.0032 1.3501 3.2552
5.0032 1.2658 3.3934
4.8347 1.3501 3.2198
5.1718 1.3501 3.3971
5.6774 1.3501 3.6092
5.5931 1.0973 3.9265
6.0145 1.0973 3.6828
5.7616 1.1815 3.7869
4.9189 1.6029 2.7656
4.8347 2.1085 1.8883
5.1718 2.1085 2.0137
5.5931 1.5186 3.3935
5.7616 1.5186 3.388
5.8459 1.6872 3.1771
5.6774 1.94 2.5774
6.0145 1.8557 2.9719
5.7616 1.8557 2.8381
5.9302 2.1085 2.5043
3.9077 2.277 2.3135
3.8234 2.6141 2.1875
4.4133 2.3613 1.6804
4.1605 2.277 1.983
4.1605 2.4456 1.8782
4.7504 2.277 1.6608
4.0762 3.2883 1.6791
3.6549 2.7827 2.2275
3.5706 2.8669 2.2352
3.6549 3.2883 1.9445
3.5706 3.204 2.0389
3.8234 3.1197 1.8706
3.9077 3.204 1.8007
4.6661 2.9512 1.2844
4.3291 2.7827 1.5494
4.1605 2.8669 1.6886
4.5819 2.7827 1.3515
4.6661 3.0355 1.2937
4.3291 3.1197 1.5127
4.1605 3.2883 1.6179
4.4976 3.2883 1.4525
4.5819 3.3725 1.4545
5.3403 2.277 1.8705
5.256 2.277 1.8223
4.8347 2.1928 1.7779
5.256 2.5299 1.5267
5.1718 2.6984 1.3389
5.6774 2.3613 2.0105
5.9302 2.277 2.2462
6.0145 2.1928 2.4605
5.9302 2.3613 2.1721
5.8459 2.4456 2.0792
5.9302 2.5299 2.1006
5.3403 2.9512 1.3061
5.3403 3.0355 1.2939
5.0875 2.7827 1.2585
5.256 3.0355 1.2585
5.0875 3.2883 1.2998
5.0875 3.3725 1.3451
5.6774 2.8669 1.5705
5.5088 2.8669 1.4415
5.8459 3.1197 1.5635
6.2673 0.9287 3.761
6.0987 1.013 3.7103
6.6043 0.9287 3.7349
6.9414 1.3501 3.2903
6.9414 1.0973 3.5463
6.8571 1.0973 3.5311
6.9414 1.2658 3.371
6.7729 1.1815 3.4308
7.0257 1.013 3.6624
6.3515 1.7714 3.0045
6.0987 2.1085 2.6801
6.6043 1.94 2.9454
6.8571 1.5186 3.1514
6.6886 1.6029 3.0818
7.11 1.6029 3.1974
7.11 1.6872 3.1738
6.9414 2.1085 2.7931
6.7729 1.8557 3.0602
8.4583 1.3501 3.2349
7.447 1.013 3.7975
7.447 1.0973 3.679
7.5313 1.2658 3.5368
7.6998 1.4343 3.4611
8.1212 1.3501 3.4519
8.1212 1.4343 3.4021
8.2897 1.013 3.2678
8.2897 1.3501 3.3525
7.447 1.6872 3.1488
7.447 1.5186 3.2709
7.3628 1.7714 3.1184
7.6156 1.6029 3.2108
8.5425 1.7714 3.0435
8.1212 1.6029 3.2575
8.0369 1.6872 3.1826
7.9527 1.7714 3.0486
8.374 1.7714 2.9968
8.2055 1.94 2.812
8.2897 1.8557 2.9053
6.183 2.277 2.5233
6.2673 2.1928 2.6994
6.3515 2.277 2.6391
6.5201 2.3613 2.5537
6.6043 2.5299 2.3293
6.4358 2.6984 2.008
6.9414 2.6984 2.2748
6.7729 2.277 2.6094
6.7729 2.3613 2.5286
6.9414 2.4456 2.4646
7.2785 2.5299 2.3973
6.3515 3.0355 1.8395
6.6043 3.1197 1.5566
6.8571 2.9512 1.7793
6.9414 2.8669 2.0259
6.7729 3.0355 1.5693
6.6886 3.1197 1.4878
7.1942 3.204 1.5006
7.0257 3.2883 1.2021
8.5425 2.6141 2.5878
7.5313 2.3613 2.5464
7.6998 2.1928 2.6575
7.5313 2.4456 2.4523
7.447 2.5299 2.3615
7.9527 2.277 2.5734
8.0369 2.3613 2.5747
7.9527 2.6984 2.3321
8.2897 2.3613 2.5707
8.4583 2.4456 2.5948
8.2897 2.5299 2.5989
8.374 2.6141 2.5886
8.4583 2.6984 2.5699
7.3628 3.0355 1.9256
7.6156 2.9512 2.0137
7.6156 3.0355 1.9255
7.447 3.2883 1.5697
7.5313 3.204 1.7186
7.3628 3.1197 1.8069
7.7841 3.204 1.7681
8.5425 3.0355 2.5265
8.2897 2.7827 2.4674
8.4583 2.8669 2.5272
8.4583 3.0355 2.4512
8.1212 3.3726 1.7965
8.5425 3.1197 2.461
8.374 3.2883 2.1104
9.1324 0.3388 3.0903
8.6268 0.5917 3.1824
8.9639 0.8445 2.8399
9.2167 0.4231 2.9842
9.301 0.4231 2.9519
9.3852 0.5074 2.8462
9.5538 0.4231 2.834
9.4695 0.7602 2.6619
10.0594 0.5074 2.5701
10.0594 0.3388 2.5743
9.9751 0.7602 2.4605
9.8066 1.4343 2.4923
8.7954 0.9287 2.939
8.7954 1.4343 2.9612
8.7954 1.1815 2.9101
8.7111 1.4343 3.0241
8.8796 1.2658 2.8674
9.301 1.0973 2.6779
9.2167 1.0973 2.6869
9.301 1.2658 2.6993
9.301 1.4343 2.7547
9.7223 1.1815 2.514
8.7954 1.7714 3.0898
8.6268 1.5186 3.1355
9.1324 1.6029 2.9028
8.8796 1.6029 2.9765
8.8796 1.6872 3.0203
8.7111 1.94 2.9312
8.9639 2.0242 3.0331
9.3852 1.6872 2.8056
9.4695 1.8557 2.8213
9.9751 1.013 2.3461
9.8909 1.013 2.41
10.0594 1.7714 2.3192
9.8909 1.5186 2.4336
9.8909 2.0242 2.6961
8.7954 2.3613 2.6966
8.6268 2.277 2.6286
8.6268 2.5299 2.6118
9.4695 2.277 3.1477
9.301 2.5299 3.1257
9.2167 2.5299 3.0253
9.8066 2.3613 3.0955
9.7223 2.3613 3.1506
9.1324 2.9512 2.9193
8.6268 2.8669 2.577
9.0482 2.8669 2.8063
8.6268 3.3725 2.2858
8.7111 3.3725 2.3928
9.0482 3.1197 2.8828
9.8066 3.0355 3.4144
9.7223 2.9512 3.3758
9.7223 2.8669 3.393
9.4695 3.3725 3.3228
9.301 3.3725 3.1198
9.8066 3.204 3.428
9.7223 3.204 3.4003
9.5538 3.2883 3.3781
10.0594 2.277 2.8965
9.9751 2.1928 2.8328
9.8909 2.8669 3.4469
9.9751 3.2883 3.477
4.0762 3.5411 1.7223
3.8234 3.5411 1.8145
3.7392 3.7096 1.8959
3.7392 3.7939 1.9243
3.9077 3.7096 1.8253
4.3291 3.4568 1.5624
4.2448 3.7096 1.7438
4.1605 3.8782 1.8656
4.6661 3.7939 1.6287
4.0762 4.5523 2.0512
3.992 4.0467 1.9874
3.7392 4.5523 2.3354
3.6549 4.3838 2.2392
4.0762 4.4681 2.0657
4.7504 4.2152 1.5961
4.7504 4.2995 1.5393
4.4133 4.2995 1.83
4.4133 4.0467 1.8402
4.3291 4.5523 1.7656
4.1605 4.3838 2.0118
4.1605 4.5523 1.9593
4.8347 3.4568 1.429
5.3403 3.7939 1.5181
5.256 3.9624 1.4963
5.4246 3.5411 1.4497
5.6774 3.7096 1.4766
5.5931 3.9624 1.2802
5.9302 3.7939 1.2723
5.7616 3.9624 1.1668
5.3403 4.2152 1.0952
4.8347 4.0467 1.6029
5.0875 4.2995 1.1818
4.8347 4.4681 1.2347
4.8347 4.6366 1.0305
5.1718 4.3838 0.9789
5.1718 4.6366 0.6736
5.9302 4.2152 0.6974
5.4246 4.131 1.1597
5.9302 4.2995 0.5902
5.5931 4.5523 0.4688
5.8459 4.5523 0.3724
3.992 5.1422 1.9629
3.7392 4.8894 2.4824
3.7392 4.7209 2.4255
3.5706 5.2265 2.7513
3.8234 4.9737 2.3629
3.9077 5.2265 2.1225
4.5819 5.0579 0.9812
4.5819 5.2265 0.9377
3.6549 5.4793 2.6082
3.5706 5.395 2.7692
3.992 5.395 1.8717
3.5706 5.7321 2.6517
3.9077 5.8164 1.8859
4.7504 5.4793 0.7801
4.4133 5.3108 1.1198
4.4133 5.6478 1.1502
4.7504 5.7321 0.813
4.4976 5.6478 1.0528
4.5819 5.8164 0.9314
4.5819 5.9006 0.8983
5.0032 4.9737 0.5993
5.0032 5.0579 0.5679
4.8347 5.1422 0.6866
5.256 5.0579 0.3969
5.6774 5.1422 0.2283
5.9302 4.7209 0.2619
6.0145 5.0579 0.1779
5.7616 5.2265 0.2157
5.256 5.3108 0.3713
5.0875 5.3108 0.4725
5.256 5.6478 0.4367
5.5088 5.395 0.2816
5.9302 5.5636 0.2795
6.5201 3.8782 0.9584
6.183 3.5411 1.4494
6.4358 3.6254 1.243
6.6043 3.7939 0.9548
6.3515 3.7096 1.21
6.9414 3.9624 0.66
6.7729 3.4568 1.1308
6.6886 3.6254 1.0159
7.11 3.5411 0.9436
7.2785 3.7096 0.8062
7.1942 3.9624 0.6215
6.2673 4.2995 0.5095
6.183 4.2152 0.6098
6.6043 4.131 0.7196
6.3515 4.0467 0.8068
6.5201 4.3838 0.4761
6.3515 4.4681 0.3728
6.7729 4.131 0.6769
6.7729 4.2995 0.5861
7.0257 4.131 0.5388
7.1942 4.3838 0.4354
7.11 4.6366 0.4395
7.8684 3.6254 1.3566
7.5313 3.4568 1.36
7.6998 3.5411 1.3564
7.6156 3.5411 1.297
7.5313 3.7939 0.8351
7.6998 3.7939 0.9898
7.6998 3.8782 0.8785
8.0369 3.8782 1.2135
8.5425 3.4568 2.1177
8.4583 3.4568 2.0363
8.5425 3.7939 1.774
7.8684 4.5523 0.7012
7.6998 4.131 0.6626
7.7841 4.131 0.7215
7.447 4.3838 0.4202
7.8684 4.4681 0.6996
8.5425 4.2152 1.5685
8.0369 4.0467 1.0331
8.1212 4.131 1.0471
8.4583 4.0467 1.5278
8.374 4.131 1.3465
8.374 4.2152 1.2923
8.4583 4.3838 1.3314
6.6043 5.1422 0.1577
6.2673 4.7209 0.2319
7.2785 4.7209 0.4483
7.11 5.1422 0.2835
6.2673 5.3108 0.1865
6.4358 5.4793 0.2302
6.4358 5.6478 0.303
7.0257 5.4793 0.2526
7.8684 4.8051 0.6698
7.5313 4.8894 0.5169
7.5313 4.9737 0.5173
7.447 5.2265 0.4571
7.6998 4.9737 0.5894
8.0369 5.0579 0.7597
8.1212 5.0579 0.8057
7.8684 5.4793 0.7524
7.5313 5.5636 0.4769
7.3628 5.395 0.3862
8.0369 5.5636 0.8592
8.2055 5.8164 0.8914
8.0369 5.7321 0.8209
8.5425 5.7321 1.0499
8.4583 5.7321 1.0236
4.7504 6.4063 0.5794
3.6549 6.322 1.8375
3.992 6.322 1.3136
4.4133 6.4905 0.6812
4.3291 6.4063 0.7999
4.1605 6.0692 1.2155
4.2448 6.322 0.9437
4.1605 6.4905 0.9694
4.6661 5.9849 0.8068
4.4976 6.4905 0.6171
4.0762 7.0804 1.0578
3.7392 6.7433 1.439
3.5706 6.6591 1.6996
3.8234 6.6591 1.3739
3.8234 6.7433 1.3437
3.9077 6.8276 1.225
3.6549 7.1647 1.385
4.0762 6.9961 1.047
4.4133 6.7433 0.6623
4.2448 6.8276 0.8383
4.5819 6.6591 0.5439
4.4976 6.7433 0.6014
4.3291 6.9119 0.7907
4.3291 7.1647 0.8787
5.1718 6.0692 0.5965
5.0875 5.9849 0.6166
5.0875 6.2377 0.6241
5.9302 6.322 0.5433
4.0762 7.4175 1.0496
3.6549 7.6703 1.0476
3.9077 7.5018 1.0916
3.992 7.7546 0.9067
4.3291 7.6703 0.8627
4.2448 7.586 0.9276
4.6661 7.249 0.7173
4.4976 7.7546 0.7734
3.8234 7.8388 0.8646
3.8234 7.9231 0.8039
3.8234 8.0074 0.7549
3.9077 8.0917 0.6853
4.6661 8.0074 0.6866
4.3291 7.8388 0.779
4.7504 7.9231 0.7107
4.6661 7.8388 0.7219
4.8347 7.4175 0.6782
5.1718 7.249 0.6366
5.0875 7.249 0.6351
5.4246 7.6703 0.6412
5.5088 7.7546 0.6422
4.9189 8.0074 0.7231
5.0032 8.1759 0.8042
5.256 8.1759 0.6949
5.6774 7.8388 0.6381
5.6774 7.9231 0.6447
5.5088 8.0074 0.6511
5.4246 8.1759 0.6704
6.0145 8.1759 0.643
6.4358 6.0692 0.4847
6.3515 6.1534 0.506
6.9414 6.322 0.4438
6.8571 6.4905 0.4514
6.8782 6.7539 0.4103
6.7729 6.5748 0.4552
8.374 6.0692 0.8596
8.5425 5.9849 0.9478
8.4583 5.9849 0.9255
7.7841 6.6591 0.4047
8.1212 6.6591 0.5392
8.2897 6.8276 0.6657
6.5201 7.3332 0.4782
6.4358 7.249 0.5101
6.7729 7.4175 0.4076
6.6886 7.3332 0.4265
6.2673 7.8388 0.5178
6.3515 7.9231 0.4807
7.2785 8.0917 0.2753
7.2785 8.1759 0.2542
8.2055 7.586 0.6363
7.7982 7.8388 0.3403
8.0369 8.0074 0.329
8.4583 8.0917 0.507
8.374 8.1759 0.4894
8.9639 3.6254 2.4636
8.8796 3.4568 2.5312
8.7953 3.7939 2.0651
9.1324 3.7939 2.5017
8.9639 3.8782 2.2145
9.301 3.6254 2.996
9.2167 3.7096 2.7468
9.7223 3.7096 3.5367
9.5538 3.8782 3.0856
8.6268 4.0467 1.7392
8.7111 4.131 1.8217
8.9639 4.2152 2.014
9.0482 4.2995 2.0265
8.6268 4.3838 1.5956
8.6268 4.5523 1.4575
9.1324 4.4681 1.9528
9.0482 4.4681 1.9089
9.301 4.0467 2.415
9.301 4.2995 2.2094
9.7223 4.131 2.8013
9.2167 4.3838 2.0833
9.9751 3.6254 3.6686
10.0594 3.7939 3.8602
9.9751 3.7096 3.7587
10.0594 4.2152 3.3316
10.0594 4.5523 2.31
9.8909 4.3838 2.4723
9.0482 5.2265 1.4484
9.4695 5.1422 1.6334
9.301 4.8051 1.7569
9.4695 4.7209 1.8788
9.2167 5.2265 1.5146
9.8066 4.8051 1.9668
9.6381 4.8051 1.902
9.8066 4.9737 1.8795
9.1324 5.8164 1.1462
8.7954 5.395 1.3733
8.9639 5.3108 1.402
8.9639 5.395 1.3895
8.7954 5.9006 1.0374
8.7111 5.9006 1.0174
9.0482 5.7321 1.2067
8.9639 5.8164 1.1326
8.8796 5.9006 1.0581
9.8066 5.4793 1.3751
9.7223 5.395 1.4275
9.5538 5.4793 1.294
9.4695 5.6478 1.1489
9.301 5.8164 1.1094
9.2167 5.9006 1.1012
9.8066 5.7321 1.1861
10.0594 4.8051 1.9655
10.0594 5.5636 1.3708
9.9751 5.8164 1.1829
9.8066 6.4905 1.0255
8.6268 6.1534 0.9122
8.7111 6.322 0.8954
9.4695 6.0692 1.0665
9.3852 6.322 0.974
9.2167 6.4905 0.9135
9.6381 5.9849 1.0843
9.6381 6.4063 1.0132
9.0482 7.0804 1.0231
8.7954 6.7433 0.9148
9.8066 6.8276 0.8998
9.7223 6.7433 0.9376
9.301 6.7433 0.9357
9.301 6.8276 0.9469
9.5538 6.8276 0.9292
9.4695 6.9119 0.9292
9.9751 6.2377 1.1209
10.0594 6.6591 1.0391
10.0594 7.0804 0.6787
9.9751 7.1647 0.7485
9.0482 7.249 1.0479
9.7223 7.4175 0.7797
9.0482 8.1759 0.6917
9.4695 8.0074 0.7866
9.7223 8.0917 0.6313
10.0594 7.3332 0.7034
9.9751 8.0917 0.5936
-188.606 -5.43365 0
199.034 -5.43365 0
5.2139 198.077 0
3 0 1 2
3 0 2 3
3 0 3 4
3 3 2 5
3 2 1 6
3 5 2 6
3 5 6 7
3 7 6 8
3 8 6 9
3 6 1 10
3 9 6 10
3 9 10 11
3 9 11 12
3 12 11 13
3 10 1 16
3 11 10 16
3 13 11 16
3 17 14 18
3 13 16 18
3 16 17 18
3 15 14 21
3 14 17 21
3 17 16 21
3 16 20 21
3 15 21 22
3 20 19 23
3 21 20 23
3 22 21 23
3 4 3 25
3 24 4 25
3 4 24 26
3 3 5 27
3 25 3 27
3 24 25 27
3 26 24 28
3 24 27 28
3 26 28 29
3 29 28 30
3 0 4 31
3 4 26 31
3 26 29 31
3 29 30 31
3 31 30 32
3 31 32 36
3 32 33 36
3 31 36 37
3 34 35 37
3 36 34 37
3 35 34 38
3 37 35 38
3 34 36 39
3 36 33 39
3 38 34 41
3 34 39 41
3 39 40 41
3 37 38 42
3 38 41 42
3 41 40 44
3 42 41 44
3 43 42 44
3 7 8 47
3 5 7 47
3 27 5 47
3 28 27 48
3 27 47 48
3 30 28 48
3 8 9 49
3 47 8 49
3 48 47 49
3 9 12 49
3 12 13 50
3 49 12 50
3 48 49 50
3 48 50 51
3 13 18 52
3 50 13 53
3 13 52 53
3 51 50 53
3 51 53 54
3 53 52 54
3 48 51 58
3 30 48 58
3 57 30 58
3 56 57 58
3 57 56 59
3 32 30 60
3 30 57 60
3 33 32 60
3 57 59 60
3 58 51 61
3 60 59 62
3 56 58 62
3 58 61 62
3 61 55 62
3 59 56 62
3 51 54 63
3 61 51 63
3 63 46 64
3 55 61 65
3 64 55 65
3 61 63 65
3 63 64 65
3 14 15 67
3 18 14 67
3 66 18 67
3 52 18 68
3 18 66 68
3 68 66 69
3 22 23 72
3 23 71 72
3 15 22 73
3 67 15 73
3 66 67 73
3 22 72 73
3 69 66 74
3 71 70 74
3 72 71 74
3 66 73 74
3 73 72 74
3 74 70 75
3 63 54 78
3 54 52 78
3 52 68 78
3 46 63 78
3 77 46 78
3 76 77 78
3 69 74 79
3 74 75 79
3 68 69 79
3 77 76 79
3 76 78 79
3 78 68 79
3 77 79 81
3 75 70 82
3 79 75 82
3 81 79 82
3 70 71 84
3 83 80 84
3 82 70 84
3 81 82 85
3 82 84 85
3 84 80 85
3 80 45 86
3 81 85 86
3 85 80 86
3 39 33 88
3 33 60 88
3 60 62 88
3 62 55 88
3 39 88 89
3 88 55 89
3 40 39 90
3 39 89 90
3 89 55 90
3 55 64 92
3 90 55 93
3 55 92 93
3 91 90 93
3 64 46 94
3 92 64 94
3 93 92 94
3 91 93 95
3 93 94 95
3 91 95 96
3 44 40 97
3 40 90 97
3 97 90 98
3 44 97 99
3 97 98 99
3 91 96 101
3 87 100 101
3 90 91 102
3 98 90 102
3 91 101 102
3 101 100 102
3 101 96 103
3 100 87 104
3 99 98 104
3 98 102 104
3 102 100 104
3 46 77 106
3 94 46 106
3 95 94 106
3 77 81 107
3 106 77 107
3 106 107 108
3 96 95 109
3 95 106 109
3 106 108 109
3 103 96 109
3 108 107 111
3 107 110 111
3 111 110 112
3 81 86 115
3 107 81 115
3 110 107 115
3 113 110 115
3 105 113 115
3 114 105 115
3 86 45 116
3 115 86 116
3 114 115 116
3 103 109 118
3 109 108 118
3 112 110 119
3 110 113 119
3 108 111 120
3 111 112 120
3 118 108 120
3 117 118 120
3 112 119 120
3 87 101 121
3 101 103 121
3 103 118 121
3 117 87 121
3 118 117 121
3 113 105 124
3 122 123 124
3 119 113 125
3 113 124 125
3 124 123 125
3 117 120 126
3 120 119 126
3 119 125 126
3 117 126 127
3 123 122 128
3 125 123 129
3 126 125 129
3 123 128 129
3 127 126 129
3 42 43 130
3 42 130 131
3 131 130 132
3 133 132 134
3 135 133 136
3 131 132 137
3 132 133 137
3 133 135 137
3 137 138 139
3 135 136 140
3 137 135 140
3 138 137 140
3 139 138 141
3 139 141 143
3 141 142 143
3 138 140 145
3 141 138 145
3 140 144 145
3 142 141 145
3 143 142 146
3 142 145 146
3 145 144 148
3 146 145 148
3 147 146 148
3 147 148 150
3 148 149 150
3 143 146 151
3 146 147 151
3 150 149 151
3 147 150 151
3 43 44 153
3 44 99 153
3 130 43 153
3 132 130 153
3 134 132 153
3 99 104 154
3 153 99 154
3 153 154 155
3 154 104 157
3 156 154 157
3 104 87 158
3 157 104 158
3 156 157 160
3 157 158 160
3 156 160 161
3 159 152 162
3 160 159 162
3 161 160 162
3 133 134 163
3 136 133 163
3 134 153 163
3 153 155 163
3 163 155 164
3 136 163 165
3 163 164 165
3 155 154 167
3 164 155 167
3 154 156 167
3 156 161 167
3 165 164 167
3 161 162 168
3 167 161 170
3 161 168 170
3 168 166 170
3 165 167 172
3 171 169 172
3 167 170 172
3 170 171 172
3 159 160 175
3 160 158 175
3 87 117 175
3 117 174 175
3 158 87 175
3 174 159 175
3 117 127 176
3 174 117 176
3 174 176 177
3 176 173 177
3 127 129 178
3 176 127 178
3 173 176 180
3 176 178 180
3 178 179 180
3 178 129 181
3 179 178 181
3 179 181 182
3 162 152 184
3 168 162 184
3 152 159 184
3 159 174 184
3 174 177 184
3 166 168 184
3 183 166 184
3 177 183 184
3 183 177 185
3 169 171 186
3 170 166 186
3 171 170 186
3 166 183 186
3 183 185 186
3 186 185 188
3 185 187 188
3 180 179 189
3 179 182 189
3 173 180 189
3 189 190 191
3 185 177 192
3 187 185 192
3 191 187 192
3 177 173 192
3 173 189 192
3 189 191 192
3 189 182 193
3 190 189 193
3 191 190 193
3 187 191 194
3 191 193 194
3 148 144 196
3 140 136 197
3 136 165 197
3 144 140 197
3 196 144 197
3 196 197 198
3 197 165 198
3 196 198 199
3 165 172 200
3 198 165 200
3 172 169 200
3 198 200 201
3 169 186 202
3 200 169 202
3 201 200 202
3 195 201 203
3 201 202 203
3 199 198 207
3 198 205 207
3 205 206 207
3 148 196 208
3 196 199 208
3 149 148 208
3 199 207 208
3 207 206 209
3 208 207 209
3 209 204 210
3 208 209 211
3 209 210 211
3 198 201 213
3 205 198 213
3 201 195 213
3 195 212 213
3 206 205 213
3 212 195 214
3 204 209 215
3 209 206 215
3 206 213 215
3 213 212 215
3 212 214 215
3 204 215 216
3 215 214 217
3 216 215 217
3 188 187 218
3 187 194 218
3 186 188 219
3 202 186 219
3 203 202 219
3 214 195 220
3 195 203 220
3 203 219 220
3 188 218 221
3 219 188 221
3 220 219 221
3 218 194 223
3 221 218 223
3 222 223 224
3 223 194 224
3 214 220 225
3 220 221 225
3 221 223 225
3 217 214 226
3 214 225 226
3 225 223 227
3 226 225 228
3 225 227 228
3 223 222 230
3 227 223 230
3 222 229 230
3 230 229 231
3 151 149 232
3 151 232 234
3 232 233 235
3 234 232 235
3 149 208 236
3 208 211 236
3 232 149 236
3 233 232 236
3 235 233 238
3 234 235 238
3 233 237 239
3 238 233 239
3 234 238 241
3 238 240 241
3 239 237 242
3 238 239 242
3 240 238 242
3 241 240 244
3 240 243 244
3 244 243 245
3 240 242 246
3 243 240 246
3 245 243 247
3 243 246 247
3 245 247 248
3 245 248 249
3 245 249 250
3 249 248 250
3 210 204 251
3 204 216 251
3 211 210 252
3 210 251 252
3 211 252 253
3 233 236 254
3 237 233 254
3 236 211 254
3 211 253 254
3 253 252 255
3 254 253 255
3 252 251 256
3 217 226 257
3 217 257 259
3 257 258 259
3 251 216 260
3 256 251 260
3 216 217 260
3 217 259 260
3 259 258 261
3 260 259 261
3 237 254 263
3 254 255 263
3 255 252 264
3 263 255 264
3 242 237 265
3 237 263 265
3 263 264 266
3 252 256 268
3 264 252 268
3 256 267 268
3 256 260 269
3 267 256 269
3 260 261 269
3 269 261 270
3 268 267 271
3 267 269 271
3 269 270 271
3 266 264 272
3 264 268 272
3 268 271 272
3 262 266 273
3 266 272 273
3 272 271 273
3 228 227 275
3 226 228 276
3 257 226 276
3 258 257 276
3 228 275 276
3 261 258 277
3 258 276 277
3 270 261 278
3 261 277 278
3 276 275 279
3 277 276 279
3 278 277 279
3 227 230 281
3 275 227 281
3 230 231 281
3 279 275 282
3 275 280 282
3 280 275 283
3 275 281 283
3 281 231 283
3 280 283 284
3 280 284 285
3 284 274 285
3 278 279 287
3 279 282 287
3 271 270 288
3 270 278 288
3 278 287 288
3 288 287 289
3 287 282 290
3 289 287 290
3 282 280 291
3 290 282 291
3 280 285 291
3 290 291 293
3 286 289 294
3 289 290 294
3 290 293 294
3 291 292 295
3 293 291 295
3 247 246 296
3 246 242 296
3 242 265 296
3 266 262 296
3 265 263 296
3 263 266 296
3 296 262 298
3 262 297 298
3 273 271 299
3 271 288 299
3 262 273 300
3 297 262 300
3 273 299 300
3 299 297 300
3 248 247 302
3 247 296 302
3 296 298 302
3 298 297 302
3 250 248 303
3 248 302 303
3 297 299 304
3 302 297 304
3 303 302 304
3 250 303 305
3 303 304 305
3 299 301 307
3 304 299 308
3 299 307 308
3 305 304 308
3 307 305 308
3 301 306 309
3 307 301 309
3 305 307 309
3 288 289 312
3 289 286 312
3 299 288 312
3 301 299 312
3 301 312 313
3 311 313 314
3 312 286 314
3 313 312 314
3 311 314 318
3 315 316 318
3 286 294 318
3 294 317 318
3 314 286 318
3 317 315 318
3 294 293 319
3 293 295 319
3 295 292 319
3 317 294 319
3 310 315 320
3 315 317 320
3 317 319 320
3 306 301 321
3 301 313 321
3 313 311 322
3 321 313 322
3 306 321 323
3 321 322 323
3 305 309 324
3 309 306 324
3 306 323 324
3 311 318 325
3 318 316 325
3 322 311 325
3 323 322 326
3 322 325 326
3 324 323 326
3 315 310 327
3 316 315 327
3 325 316 327
3 326 325 327
3 326 327 328
3 327 310 328
3 19 20 331
3 20 16 331
3 19 331 332
3 332 333 334
3 333 330 336
3 334 333 336
3 335 334 336
3 330 333 339
3 333 338 339
3 338 337 339
3 330 339 340
3 339 337 341
3 340 339 342
3 339 341 342
3 341 337 344
3 337 338 344
3 338 343 344
3 344 343 346
3 343 345 346
3 329 346 350
3 346 345 350
3 345 348 350
3 348 347 350
3 347 349 350
3 329 350 351
3 350 349 351
3 329 351 352
3 347 348 354
3 354 353 355
3 349 347 356
3 347 354 356
3 354 355 356
3 353 354 359
3 358 353 359
3 357 358 359
3 353 358 360
3 358 357 360
3 355 353 361
3 353 360 361
3 360 357 362
3 361 360 362
3 357 359 363
3 362 357 364
3 357 363 364
3 362 364 365
3 366 365 367
3 71 23 370
3 23 19 370
3 19 332 370
3 332 334 370
3 334 335 370
3 83 84 371
3 84 71 371
3 71 370 371
3 370 369 371
3 370 335 372
3 372 335 373
3 372 373 374
3 369 370 375
3 374 369 375
3 370 372 375
3 372 374 375
3 335 336 376
3 373 335 376
3 336 330 376
3 330 340 376
3 373 376 377
3 374 373 378
3 373 377 378
3 369 374 380
3 371 369 380
3 45 80 381
3 80 83 382
3 381 80 382
3 83 371 382
3 371 380 382
3 380 379 382
3 379 381 382
3 374 378 383
3 380 374 383
3 380 383 384
3 379 380 385
3 380 384 385
3 384 383 386
3 385 384 386
3 385 386 387
3 386 368 387
3 376 340 388
3 377 376 388
3 340 342 388
3 342 341 389
3 388 342 389
3 388 389 390
3 377 388 392
3 388 390 392
3 383 378 393
3 378 377 393
3 377 392 393
3 392 391 393
3 390 389 394
3 392 390 394
3 391 392 394
3 341 344 396
3 344 346 396
3 389 341 396
3 394 389 396
3 395 394 396
3 346 329 397
3 395 396 398
3 396 346 398
3 346 397 398
3 368 386 399
3 386 383 399
3 383 393 399
3 393 391 399
3 391 394 399
3 368 399 400
3 400 399 401
3 394 395 402
3 399 394 402
3 401 399 402
3 395 398 403
3 398 397 403
3 402 395 403
3 403 397 404
3 402 403 404
3 401 402 405
3 402 404 407
3 405 402 407
3 404 406 407
3 405 407 408
3 407 406 408
3 114 116 409
3 116 45 409
3 45 381 409
3 381 379 409
3 105 114 410
3 114 409 410
3 385 387 411
3 379 385 412
3 385 411 412
3 409 379 412
3 410 409 413
3 409 412 413
3 412 411 413
3 387 368 414
3 368 400 414
3 411 387 414
3 105 410 416
3 122 124 417
3 124 105 417
3 105 416 417
3 129 128 419
3 181 129 419
3 418 181 419
3 128 122 420
3 419 128 420
3 122 417 420
3 417 416 420
3 418 419 420
3 418 420 421
3 413 411 423
3 416 410 424
3 420 416 424
3 410 413 424
3 413 423 424
3 415 421 424
3 421 420 424
3 411 414 425
3 422 423 425
3 423 411 425
3 423 422 427
3 422 426 427
3 424 423 427
3 415 424 428
3 424 427 428
3 427 426 429
3 429 426 430
3 401 405 431
3 401 431 432
3 400 401 433
3 401 432 433
3 414 400 433
3 432 431 434
3 414 433 434
3 433 432 434
3 414 434 435
3 405 408 436
3 431 405 436
3 434 431 436
3 436 408 437
3 437 408 438
3 436 437 439
3 437 438 439
3 436 439 440
3 440 439 441
3 422 425 444
3 425 414 444
3 414 435 444
3 435 442 444
3 426 422 444
3 442 443 445
3 444 442 445
3 445 443 446
3 426 444 446
3 444 445 446
3 436 440 448
3 440 441 448
3 435 434 449
3 442 435 449
3 434 436 449
3 436 448 449
3 443 442 449
3 448 441 450
3 443 449 450
3 449 448 450
3 351 349 451
3 352 351 451
3 329 352 452
3 397 329 452
3 352 451 452
3 349 356 453
3 451 349 453
3 356 355 453
3 453 355 456
3 456 455 457
3 451 453 458
3 453 456 458
3 456 457 458
3 457 454 458
3 355 361 459
3 455 456 459
3 456 355 459
3 457 455 459
3 404 397 460
3 406 404 460
3 408 406 461
3 438 408 461
3 406 460 461
3 458 454 463
3 397 452 464
3 460 397 464
3 452 451 464
3 451 458 464
3 458 463 464
3 462 460 464
3 463 454 465
3 463 465 466
3 462 464 468
3 464 463 468
3 463 466 468
3 466 467 468
3 467 462 468
3 361 362 470
3 459 361 470
3 454 457 471
3 457 459 471
3 459 470 471
3 470 362 471
3 471 362 472
3 472 362 473
3 473 362 474
3 473 474 475
3 362 365 476
3 365 366 476
3 366 367 476
3 367 469 476
3 474 362 476
3 475 474 477
3 474 476 477
3 476 469 477
3 465 454 479
3 454 471 479
3 471 472 479
3 478 465 479
3 472 473 479
3 467 466 480
3 466 465 480
3 465 478 480
3 478 479 481
3 479 473 481
3 475 477 483
3 473 475 484
3 475 483 484
3 481 473 485
3 473 484 485
3 477 469 486
3 483 477 486
3 485 484 487
3 484 483 488
3 483 486 488
3 486 482 488
3 487 484 488
3 439 438 489
3 441 439 489
3 438 461 489
3 461 460 490
3 460 462 490
3 489 461 490
3 490 462 491
3 489 490 491
3 491 462 492
3 441 489 494
3 489 491 494
3 491 492 494
3 492 493 494
3 462 467 496
3 492 462 496
3 493 492 497
3 492 496 497
3 496 467 498
3 497 496 498
3 495 493 498
3 493 497 498
3 498 467 499
3 495 498 499
3 450 441 500
3 441 494 500
3 500 494 501
3 494 493 502
3 493 495 502
3 495 499 503
3 502 495 503
3 501 494 504
3 494 502 504
3 501 504 505
3 502 503 506
3 504 502 507
3 502 506 507
3 505 504 507
3 467 480 509
3 499 467 509
3 480 478 510
3 478 481 510
3 481 485 510
3 509 480 510
3 509 510 511
3 499 509 512
3 509 511 512
3 485 487 513
3 510 485 513
3 511 510 513
3 513 487 514
3 512 511 515
3 511 513 515
3 513 514 515
3 514 487 516
3 515 514 518
3 514 516 518
3 516 517 518
3 517 508 519
3 518 517 519
3 519 508 520
3 503 499 521
3 506 503 521
3 499 512 521
3 512 515 522
3 521 512 522
3 521 522 523
3 506 521 526
3 524 506 526
3 521 523 526
3 523 525 526
3 525 524 526
3 522 515 527
3 523 522 527
3 525 523 527
3 515 518 529
3 518 519 529
3 519 520 529
3 527 515 529
3 529 520 530
3 529 530 531
3 530 528 531
3 527 529 532
3 529 531 532
3 531 528 533
3 532 531 534
3 531 533 534
3 365 364 536
3 367 365 536
3 364 363 536
3 363 535 536
3 536 535 537
3 537 535 538
3 538 535 539
3 537 538 540
3 538 539 540
3 539 535 541
3 540 539 541
3 537 540 542
3 540 541 542
3 541 535 544
3 543 541 544
3 542 541 545
3 541 543 545
3 367 536 547
3 536 537 547
3 469 367 549
3 367 547 549
3 547 537 549
3 469 549 550
3 548 550 551
3 550 549 551
3 549 537 553
3 551 549 553
3 537 542 553
3 542 552 553
3 551 553 554
3 553 552 554
3 551 554 555
3 552 542 556
3 554 552 556
3 546 555 556
3 555 554 556
3 482 486 558
3 486 469 558
3 469 550 558
3 557 482 558
3 548 551 559
3 551 555 559
3 550 548 560
3 558 550 560
3 557 558 560
3 548 559 560
3 557 560 561
3 560 559 561
3 488 482 562
3 482 557 562
3 557 561 563
3 561 559 563
3 562 557 563
3 555 546 564
3 559 555 564
3 563 559 564
3 564 546 565
3 563 564 565
3 545 543 566
3 546 556 566
3 542 545 567
3 545 566 567
3 556 542 567
3 566 556 567
3 566 543 568
3 565 546 569
3 546 566 569
3 566 568 569
3 565 569 570
3 569 568 570
3 487 488 572
3 488 562 572
3 516 487 572
3 517 516 572
3 562 563 572
3 563 571 572
3 508 517 573
3 517 572 573
3 572 571 573
3 563 565 574
3 565 570 574
3 571 563 576
3 563 574 576
3 574 575 576
3 574 570 578
3 570 577 578
3 575 574 578
3 576 575 579
3 520 508 580
3 530 520 580
3 528 530 580
3 508 573 580
3 573 571 581
3 571 576 581
3 576 579 581
3 580 573 581
3 534 533 582
3 582 533 583
3 533 528 584
3 528 580 584
3 580 581 584
3 583 533 584
3 581 579 584
3 575 578 587
3 579 575 587
3 586 579 587
3 578 577 587
3 584 579 589
3 586 585 591
3 585 590 591
3 579 586 592
3 588 589 592
3 589 579 592
3 586 591 592
3 570 568 594
3 568 593 594
3 577 570 594
3 593 577 594
3 585 586 595
3 586 587 595
3 587 577 595
3 577 593 595
3 590 585 596
3 585 595 596
3 595 593 596
3 415 428 597
3 181 418 598
3 418 421 598
3 421 415 598
3 415 597 598
3 182 181 599
3 181 598 599
3 193 182 600
3 182 599 600
3 598 597 601
3 599 598 601
3 600 599 601
3 428 427 602
3 427 429 602
3 597 428 602
3 429 430 602
3 601 597 603
3 597 602 603
3 601 603 604
3 602 430 605
3 603 602 605
3 600 601 607
3 601 604 607
3 193 600 609
3 600 607 609
3 194 193 609
3 224 194 609
3 608 224 609
3 609 607 610
3 606 608 610
3 608 609 610
3 611 612 613
3 604 603 614
3 603 605 614
3 607 604 614
3 611 613 614
3 610 607 616
3 607 614 616
3 614 613 616
3 613 615 616
3 606 610 617
3 610 616 617
3 616 615 617
3 430 426 618
3 426 446 618
3 446 447 618
3 605 430 618
3 618 447 619
3 605 618 620
3 618 619 620
3 446 443 621
3 447 446 621
3 619 447 621
3 443 450 621
3 621 450 622
3 619 621 622
3 620 619 623
3 619 622 623
3 623 622 625
3 622 624 625
3 611 614 627
3 614 605 627
3 605 620 627
3 612 611 628
3 611 627 628
3 620 626 628
3 627 620 628
3 613 612 629
3 615 613 629
3 612 628 629
3 615 629 630
3 628 626 631
3 629 628 631
3 630 629 632
3 629 631 632
3 625 624 633
3 623 625 633
3 620 623 634
3 626 620 634
3 623 633 634
3 634 633 635
3 631 626 636
3 632 631 636
3 626 634 636
3 634 635 636
3 636 635 637
3 606 617 638
3 617 615 638
3 224 608 640
3 639 224 640
3 608 606 640
3 222 224 641
3 229 222 641
3 224 639 641
3 606 638 642
3 639 640 642
3 640 606 642
3 641 639 642
3 641 642 643
3 642 638 643
3 615 630 644
3 638 615 644
3 231 229 647
3 229 641 647
3 641 643 647
3 643 646 647
3 643 638 648
3 646 643 648
3 283 231 649
3 231 647 649
3 647 646 649
3 646 648 650
3 649 646 650
3 638 644 652
3 644 645 652
3 648 638 652
3 645 651 652
3 650 648 653
3 648 652 653
3 652 651 655
3 653 652 655
3 651 654 655
3 653 655 656
3 655 654 656
3 653 656 657
3 656 654 657
3 630 632 658
3 644 630 658
3 645 644 660
3 644 658 660
3 658 659 660
3 651 645 660
3 632 636 661
3 658 632 661
3 659 658 661
3 661 636 662
3 636 637 663
3 662 636 663
3 662 663 664
3 662 664 665
3 651 660 667
3 660 659 667
3 659 661 667
3 661 666 667
3 654 651 668
3 651 667 668
3 667 666 668
3 661 662 669
3 666 661 669
3 662 665 669
3 668 666 669
3 665 664 670
3 668 669 670
3 669 665 670
3 450 500 672
3 622 450 672
3 624 622 672
3 500 501 672
3 672 501 673
3 671 673 674
3 673 671 675
3 624 672 675
3 672 673 675
3 501 505 677
3 673 501 677
3 505 507 677
3 674 673 678
3 673 677 678
3 676 674 678
3 507 506 679
3 506 524 679
3 677 507 679
3 676 678 679
3 678 677 679
3 676 679 680
3 676 680 681
3 635 633 683
3 682 635 683
3 633 624 683
3 624 675 685
3 683 624 685
3 675 671 685
3 682 683 685
3 684 682 685
3 671 684 685
3 682 684 686
3 637 635 687
3 635 682 687
3 682 686 687
3 671 674 688
3 684 671 688
3 674 676 688
3 686 684 689
3 684 688 689
3 676 681 690
3 688 676 690
3 689 688 690
3 690 681 691
3 689 690 691
3 686 689 692
3 689 691 692
3 527 532 693
3 524 525 694
3 525 527 694
3 679 524 694
3 680 679 694
3 527 693 695
3 694 527 695
3 694 695 696
3 681 680 697
3 680 694 697
3 694 696 697
3 695 693 698
3 696 695 698
3 697 696 698
3 697 698 699
3 693 532 700
3 698 693 700
3 699 698 700
3 534 582 701
3 582 583 701
3 532 534 702
3 534 701 702
3 700 532 702
3 700 702 703
3 702 701 703
3 681 697 705
3 697 699 705
3 705 699 706
3 691 681 707
3 681 705 707
3 705 706 708
3 704 707 708
3 707 705 708
3 699 700 710
3 706 699 710
3 708 706 711
3 706 710 711
3 710 700 711
3 700 703 712
3 711 700 713
3 700 712 713
3 712 709 713
3 713 709 714
3 711 713 714
3 704 708 715
3 714 709 715
3 708 711 715
3 711 714 715
3 686 692 716
3 663 637 717
3 637 687 717
3 664 663 717
3 687 686 717
3 686 716 717
3 692 691 718
3 691 707 718
3 716 692 719
3 692 718 719
3 670 664 720
3 664 717 720
3 717 716 720
3 720 716 721
3 670 720 721
3 670 721 722
3 716 719 723
3 721 716 723
3 722 721 723
3 704 715 724
3 707 704 725
3 718 707 725
3 704 724 725
3 719 718 726
3 718 725 726
3 719 726 727
3 725 724 728
3 726 725 728
3 727 726 728
3 728 724 729
3 724 715 730
3 729 724 730
3 727 728 731
3 728 729 731
3 727 731 732
3 723 719 733
3 719 727 733
3 727 732 733
3 732 723 733
3 729 730 734
3 731 729 734
3 732 731 736
3 731 734 736
3 734 735 736
3 734 730 738
3 735 734 738
3 284 283 740
3 283 649 740
3 274 284 740
3 649 650 740
3 740 650 741
3 650 653 744
3 653 657 744
3 741 650 744
3 744 657 745
3 741 744 745
3 743 742 746
3 741 745 746
3 745 743 746
3 657 654 747
3 743 745 747
3 745 657 747
3 742 743 748
3 743 747 748
3 747 739 748
3 291 285 751
3 292 291 751
3 285 274 751
3 750 292 751
3 274 740 751
3 740 741 752
3 741 746 752
3 750 751 752
3 751 740 752
3 750 752 753
3 752 746 754
3 753 752 754
3 750 753 754
3 320 319 755
3 319 292 755
3 292 750 755
3 754 749 755
3 750 754 755
3 749 754 756
3 746 742 757
3 754 746 758
3 746 757 758
3 756 754 758
3 748 739 759
3 742 748 760
3 757 742 760
3 748 759 760
3 749 756 761
3 756 758 761
3 758 757 761
3 757 760 761
3 749 761 762
3 668 670 763
3 654 668 764
3 668 763 764
3 747 654 764
3 739 747 765
3 747 764 765
3 764 763 765
3 763 670 766
3 765 763 766
3 755 749 767
3 749 762 767
3 310 320 768
3 320 755 768
3 755 767 769
3 768 755 769
3 769 767 770
3 767 762 772
3 770 767 772
3 771 770 772
3 760 759 773
3 761 760 773
3 762 761 773
3 771 772 773
3 772 762 773
3 771 773 774
3 310 768 775
3 768 769 775
3 769 770 775
3 328 310 776
3 310 775 776
3 775 770 776
3 328 776 777
3 324 326 778
3 326 328 778
3 328 777 778
3 776 770 778
3 777 776 778
3 770 771 780
3 778 770 780
3 771 774 780
3 774 779 780
3 779 778 780
3 779 774 782
3 781 779 782
3 774 773 783
3 782 774 783
3 781 782 783
3 739 765 784
3 765 766 784
3 759 739 785
3 739 784 785
3 773 759 785
3 783 773 785
3 783 785 786
3 785 784 786
3 781 783 788
3 783 786 788
3 779 781 788
3 324 778 789
3 778 779 789
3 779 788 789
3 788 786 790
3 789 788 790
3 787 786 791
3 787 791 792
3 786 787 793
3 790 786 793
3 787 792 793
3 790 793 794
3 793 792 794
3 794 792 795
3 722 723 796
3 670 722 797
3 722 796 797
3 766 670 797
3 723 732 798
3 796 723 798
3 797 796 799
3 796 798 799
3 799 798 800
3 766 797 801
3 797 799 801
3 799 800 801
3 736 735 802
3 735 738 804
3 802 735 804
3 738 737 804
3 737 803 804
3 732 736 805
3 798 732 805
3 736 802 805
3 800 798 805
3 805 802 806
3 805 806 807
3 784 766 809
3 786 784 809
3 791 786 809
3 766 801 809
3 801 800 809
3 800 805 810
3 808 809 811
3 809 800 811
3 800 810 811
3 810 808 811
3 792 791 812
3 795 792 812
3 791 809 812
3 809 808 812
3 808 810 813
3 812 808 813
3 795 812 813
3 813 810 814
3 795 813 815
3 813 814 815
3 805 807 816
3 810 805 817
3 805 816 817
3 814 810 817
3 815 814 817
3 815 817 818
3 817 816 818
3 818 816 819
3 815 818 820
3 818 819 820
3 583 584 822
3 584 589 822
3 589 821 822
3 701 583 822
3 703 701 823
3 701 822 823
3 822 821 823
3 823 821 825
3 821 824 825
3 589 588 826
3 821 589 826
3 824 821 827
3 821 826 827
3 588 592 828
3 591 590 828
3 592 591 828
3 826 588 828
3 827 826 829
3 826 828 829
3 709 712 830
3 712 703 830
3 703 823 830
3 823 825 831
3 830 823 831
3 709 830 831
3 831 825 832
3 715 709 834
3 709 831 834
3 831 832 834
3 730 715 835
3 715 834 835
3 832 833 837
3 834 832 837
3 835 834 837
3 833 836 837
3 824 827 838
3 827 829 838
3 825 824 838
3 832 825 838
3 833 832 838
3 833 838 839
3 829 828 840
3 838 829 840
3 839 838 840
3 836 833 841
3 833 839 841
3 590 596 842
3 828 590 842
3 596 593 843
3 842 596 843
3 840 828 844
3 843 840 844
3 828 842 844
3 842 843 844
3 840 843 845
3 839 840 847
3 840 845 847
3 845 846 847
3 835 837 850
3 848 835 850
3 837 836 850
3 841 839 851
3 839 847 851
3 836 841 851
3 850 836 851
3 849 850 851
3 848 850 852
3 850 849 852
3 847 846 853
3 851 847 854
3 847 853 854
3 849 851 854
3 849 854 855
3 854 853 855
3 737 738 857
3 738 730 857
3 730 835 857
3 835 848 858
3 857 835 858
3 848 852 859
3 858 848 859
3 857 858 859
3 803 737 861
3 737 860 861
3 859 852 862
3 857 859 862
3 737 857 863
3 860 737 863
3 857 862 863
3 862 856 863
3 860 863 864
3 863 856 864
3 849 855 866
3 855 865 866
3 852 849 867
3 849 866 867
3 866 865 867
3 862 852 868
3 852 867 868
3 856 862 869
3 862 868 869
3 864 856 870
3 856 869 870
3 867 865 871
3 868 867 871
3 853 846 872
3 855 853 872
3 865 855 873
3 855 872 873
3 871 865 873
3 871 873 874
3 802 804 876
3 804 803 876
3 803 861 876
3 861 860 876
3 860 864 876
3 806 802 877
3 802 876 877
3 807 806 877
3 876 864 877
3 870 869 878
3 870 878 879
3 864 870 880
3 877 864 880
3 870 879 880
3 869 868 881
3 878 869 881
3 868 871 881
3 871 874 881
3 879 878 882
3 878 881 882
3 807 877 884
3 883 807 884
3 877 880 884
3 882 875 886
3 880 879 887
3 879 882 887
3 884 880 887
3 883 884 888
3 884 887 888
3 882 886 889
3 887 882 889
3 886 885 889
3 888 887 889
3 889 885 890
3 883 888 890
3 888 889 890
3 881 874 891
3 875 882 891
3 882 881 891
3 874 873 891
3 885 886 892
3 886 875 892
3 891 873 892
3 875 891 892
3 885 892 893
3 890 885 894
3 885 893 894
3 819 816 895
3 816 807 895
3 807 883 895
3 883 890 895
3 890 894 896
3 895 890 896
3 820 819 897
3 819 895 897
3 895 896 898
3 897 895 898
3 897 898 899
3 898 896 899
3 894 893 900
3 896 894 900
3 897 899 901
3 899 896 901
3 896 900 901
